<?xml version="1.0" encoding="utf-8"?>
<!-- Generator: Adobe Illustrator 23.0.2, SVG Export Plug-In . SVG Version: 6.00 Build 0)  -->
<svg version="1.1" id="Layer_1" xmlns="http://www.w3.org/2000/svg" xmlns:xlink="http://www.w3.org/1999/xlink" x="0px" y="0px"
	 viewBox="0 0 947.8 96.8" style="enable-background:new 0 0 947.8 96.8;" xml:space="preserve">
<style type="text/css">
	.st0{fill:url(#SVGID_1_);}
	.st1{fill:url(#SVGID_2_);}
	.st2{fill:url(#SVGID_3_);}
	.st3{fill:url(#SVGID_4_);}
	.st4{fill:url(#SVGID_5_);}
	.st5{fill:url(#SVGID_6_);}
	.st6{fill:url(#SVGID_7_);}
	.st7{fill:url(#SVGID_8_);}
	.st8{fill:url(#SVGID_9_);}
	.st9{fill:url(#SVGID_10_);}
	.st10{fill:url(#SVGID_11_);}
	.st11{fill:url(#SVGID_12_);}
	.st12{fill:url(#SVGID_13_);}
	.st13{fill:url(#SVGID_14_);}
	.st14{fill:url(#SVGID_15_);}
	.st15{fill:url(#SVGID_16_);}
	.st16{fill:url(#SVGID_17_);}
	.st17{fill:url(#SVGID_18_);}
	.st18{enable-background:new    ;}
	.st19{fill:#7AC943;}
	.st20{fill:#1A1A1A;}
	.st21{fill:#1687D3;}
</style>
<title>logo-swish-long</title>
<g>
	<g id="Layer_1-2">
		
			<linearGradient id="SVGID_1_" gradientUnits="userSpaceOnUse" x1="114.6369" y1="30.5936" x2="13.3969" y2="80.0936" gradientTransform="matrix(1 0 0 -1 0 98)">
			<stop  offset="3.000000e-02" style="stop-color:#EF3511"/>
			<stop  offset="0.26" style="stop-color:#F7D64B"/>
			<stop  offset="0.5" style="stop-color:#97C735"/>
			<stop  offset="0.74" style="stop-color:#33B3E8"/>
			<stop  offset="1" style="stop-color:#336699"/>
		</linearGradient>
		<path class="st0" d="M112.9,63.3c0,3.6-2.9,6.6-6.6,6.6s-6.6-2.9-6.6-6.6c0-3.6,2.9-6.6,6.6-6.6c0,0,0,0,0,0
			C110,56.7,112.9,59.7,112.9,63.3z"/>
		
			<linearGradient id="SVGID_2_" gradientUnits="userSpaceOnUse" x1="114.318" y1="29.9459" x2="13.078" y2="79.4359" gradientTransform="matrix(1 0 0 -1 0 98)">
			<stop  offset="3.000000e-02" style="stop-color:#EF3511"/>
			<stop  offset="0.26" style="stop-color:#F7D64B"/>
			<stop  offset="0.5" style="stop-color:#97C735"/>
			<stop  offset="0.74" style="stop-color:#33B3E8"/>
			<stop  offset="1" style="stop-color:#336699"/>
		</linearGradient>
		<path class="st1" d="M90.7,53.7c0,3.2-2.6,5.8-5.8,5.8s-5.8-2.6-5.8-5.8c0-3.2,2.6-5.8,5.8-5.8c0,0,0,0,0,0
			C88.2,47.9,90.7,50.5,90.7,53.7z"/>
		
			<linearGradient id="SVGID_3_" gradientUnits="userSpaceOnUse" x1="111.666" y1="24.5117" x2="10.416" y2="74.0018" gradientTransform="matrix(1 0 0 -1 0 98)">
			<stop  offset="3.000000e-02" style="stop-color:#EF3511"/>
			<stop  offset="0.26" style="stop-color:#F7D64B"/>
			<stop  offset="0.5" style="stop-color:#97C735"/>
			<stop  offset="0.74" style="stop-color:#33B3E8"/>
			<stop  offset="1" style="stop-color:#336699"/>
		</linearGradient>
		<path class="st2" d="M67.2,49.3c0,2.8-2.2,5-5,5c-2.8,0-5-2.2-5-5s2.2-5,5-5C64.9,44.3,67.2,46.5,67.2,49.3z"/>
		
			<linearGradient id="SVGID_4_" gradientUnits="userSpaceOnUse" x1="106.7896" y1="14.5587" x2="5.5596" y2="64.0487" gradientTransform="matrix(1 0 0 -1 0 98)">
			<stop  offset="3.000000e-02" style="stop-color:#EF3511"/>
			<stop  offset="0.26" style="stop-color:#F7D64B"/>
			<stop  offset="0.5" style="stop-color:#97C735"/>
			<stop  offset="0.74" style="stop-color:#33B3E8"/>
			<stop  offset="1" style="stop-color:#336699"/>
		</linearGradient>
		<path class="st3" d="M42.9,50.1c0,2.3-1.8,4.2-4.1,4.2c-2.3,0-4.2-1.8-4.2-4.1c0-2.3,1.8-4.2,4.1-4.2c0,0,0,0,0,0
			C41,46,42.9,47.8,42.9,50.1z"/>
		
			<linearGradient id="SVGID_5_" gradientUnits="userSpaceOnUse" x1="100.6972" y1="2.0643" x2="-0.5528" y2="51.5644" gradientTransform="matrix(1 0 0 -1 0 98)">
			<stop  offset="3.000000e-02" style="stop-color:#EF3511"/>
			<stop  offset="0.26" style="stop-color:#F7D64B"/>
			<stop  offset="0.5" style="stop-color:#97C735"/>
			<stop  offset="0.74" style="stop-color:#33B3E8"/>
			<stop  offset="1" style="stop-color:#336699"/>
		</linearGradient>
		<path class="st4" d="M22,55.8c0,1.9-1.5,3.3-3.4,3.3c-1.9,0-3.3-1.5-3.3-3.4s1.5-3.3,3.4-3.3c0,0,0,0,0,0
			C20.6,52.5,22.1,54,22,55.8C22.1,55.8,22.1,55.8,22,55.8z"/>
		
			<linearGradient id="SVGID_6_" gradientUnits="userSpaceOnUse" x1="94.1957" y1="-11.2287" x2="-7.0443" y2="38.2712" gradientTransform="matrix(1 0 0 -1 0 98)">
			<stop  offset="3.000000e-02" style="stop-color:#EF3511"/>
			<stop  offset="0.26" style="stop-color:#F7D64B"/>
			<stop  offset="0.5" style="stop-color:#97C735"/>
			<stop  offset="0.74" style="stop-color:#33B3E8"/>
			<stop  offset="1" style="stop-color:#336699"/>
		</linearGradient>
		<path class="st5" d="M5.1,64.4c0,1.4-1.1,2.5-2.5,2.5C1.1,67,0,65.8,0,64.4c0-1.4,1.1-2.5,2.5-2.5c0,0,0,0,0,0
			C3.9,61.9,5.1,63,5.1,64.4z"/>
		
			<linearGradient id="SVGID_7_" gradientUnits="userSpaceOnUse" x1="121.4087" y1="44.4273" x2="20.1587" y2="93.9273" gradientTransform="matrix(1 0 0 -1 0 98)">
			<stop  offset="3.000000e-02" style="stop-color:#EF3511"/>
			<stop  offset="0.26" style="stop-color:#F7D64B"/>
			<stop  offset="0.5" style="stop-color:#97C735"/>
			<stop  offset="0.74" style="stop-color:#33B3E8"/>
			<stop  offset="1" style="stop-color:#336699"/>
		</linearGradient>
		<path class="st6" d="M115.2,47.8c0,3.1-2.5,5.7-5.7,5.7s-5.7-2.5-5.7-5.7s2.5-5.7,5.7-5.7S115.2,44.6,115.2,47.8L115.2,47.8z"/>
		
			<linearGradient id="SVGID_8_" gradientUnits="userSpaceOnUse" x1="121.1268" y1="43.8634" x2="19.8868" y2="93.3634" gradientTransform="matrix(1 0 0 -1 0 98)">
			<stop  offset="3.000000e-02" style="stop-color:#EF3511"/>
			<stop  offset="0.26" style="stop-color:#F7D64B"/>
			<stop  offset="0.5" style="stop-color:#97C735"/>
			<stop  offset="0.74" style="stop-color:#33B3E8"/>
			<stop  offset="1" style="stop-color:#336699"/>
		</linearGradient>
		<path class="st7" d="M96.1,39.5c0,2.8-2.2,5-5,5s-5-2.2-5-5s2.2-5,5-5S96.1,36.7,96.1,39.5z"/>
		
			<linearGradient id="SVGID_9_" gradientUnits="userSpaceOnUse" x1="118.8411" y1="39.1923" x2="17.6011" y2="88.6823" gradientTransform="matrix(1 0 0 -1 0 98)">
			<stop  offset="3.000000e-02" style="stop-color:#EF3511"/>
			<stop  offset="0.26" style="stop-color:#F7D64B"/>
			<stop  offset="0.5" style="stop-color:#97C735"/>
			<stop  offset="0.74" style="stop-color:#33B3E8"/>
			<stop  offset="1" style="stop-color:#336699"/>
		</linearGradient>
		<path class="st8" d="M75.8,35.7c0,2.4-1.9,4.3-4.3,4.3s-4.3-1.9-4.3-4.3c0-2.4,1.9-4.3,4.3-4.3l0,0C73.9,31.4,75.8,33.3,75.8,35.7
			z"/>
		
			<linearGradient id="SVGID_10_" gradientUnits="userSpaceOnUse" x1="114.6616" y1="30.6232" x2="13.4116" y2="80.1232" gradientTransform="matrix(1 0 0 -1 0 98)">
			<stop  offset="3.000000e-02" style="stop-color:#EF3511"/>
			<stop  offset="0.26" style="stop-color:#F7D64B"/>
			<stop  offset="0.5" style="stop-color:#97C735"/>
			<stop  offset="0.74" style="stop-color:#33B3E8"/>
			<stop  offset="1" style="stop-color:#336699"/>
		</linearGradient>
		<path class="st9" d="M54.9,36.4c0,2-1.6,3.6-3.6,3.6s-3.6-1.6-3.6-3.6s1.6-3.6,3.6-3.6l0,0C53.3,32.8,54.9,34.4,54.9,36.4z"/>
		
			<linearGradient id="SVGID_11_" gradientUnits="userSpaceOnUse" x1="109.3803" y1="19.8506" x2="8.1403" y2="69.3406" gradientTransform="matrix(1 0 0 -1 0 98)">
			<stop  offset="3.000000e-02" style="stop-color:#EF3511"/>
			<stop  offset="0.26" style="stop-color:#F7D64B"/>
			<stop  offset="0.5" style="stop-color:#97C735"/>
			<stop  offset="0.74" style="stop-color:#33B3E8"/>
			<stop  offset="1" style="stop-color:#336699"/>
		</linearGradient>
		<path class="st10" d="M36.9,41.3c0,1.6-1.3,2.9-2.9,2.9c-1.6,0-2.9-1.3-2.9-2.9c0-1.6,1.3-2.9,2.9-2.9S36.9,39.7,36.9,41.3
			C36.9,41.3,36.9,41.3,36.9,41.3z"/>
		
			<linearGradient id="SVGID_12_" gradientUnits="userSpaceOnUse" x1="103.795" y1="8.3799" x2="2.535" y2="57.8899" gradientTransform="matrix(1 0 0 -1 0 98)">
			<stop  offset="3.000000e-02" style="stop-color:#EF3511"/>
			<stop  offset="0.26" style="stop-color:#F7D64B"/>
			<stop  offset="0.5" style="stop-color:#97C735"/>
			<stop  offset="0.74" style="stop-color:#33B3E8"/>
			<stop  offset="1" style="stop-color:#336699"/>
		</linearGradient>
		<path class="st11" d="M22.3,48.7c0,1.2-1,2.2-2.2,2.2s-2.2-1-2.2-2.2c0-1.2,1-2.2,2.2-2.2c0,0,0,0,0,0
			C21.3,46.5,22.3,47.5,22.3,48.7C22.3,48.7,22.3,48.7,22.3,48.7z"/>
		
			<linearGradient id="SVGID_13_" gradientUnits="userSpaceOnUse" x1="128.1688" y1="58.2575" x2="26.9288" y2="107.7575" gradientTransform="matrix(1 0 0 -1 0 98)">
			<stop  offset="3.000000e-02" style="stop-color:#EF3511"/>
			<stop  offset="0.26" style="stop-color:#F7D64B"/>
			<stop  offset="0.5" style="stop-color:#97C735"/>
			<stop  offset="0.74" style="stop-color:#33B3E8"/>
			<stop  offset="1" style="stop-color:#336699"/>
		</linearGradient>
		<path class="st12" d="M117.6,32.2c0,2.6-2.1,4.8-4.8,4.8c-2.6,0-4.8-2.1-4.8-4.8c0-2.6,2.1-4.8,4.8-4.8l0,0
			C115.4,27.5,117.6,29.6,117.6,32.2C117.6,32.2,117.6,32.2,117.6,32.2z"/>
		
			<linearGradient id="SVGID_14_" gradientUnits="userSpaceOnUse" x1="127.9419" y1="57.7939" x2="26.6919" y2="107.2939" gradientTransform="matrix(1 0 0 -1 0 98)">
			<stop  offset="3.000000e-02" style="stop-color:#EF3511"/>
			<stop  offset="0.26" style="stop-color:#F7D64B"/>
			<stop  offset="0.5" style="stop-color:#97C735"/>
			<stop  offset="0.74" style="stop-color:#33B3E8"/>
			<stop  offset="1" style="stop-color:#336699"/>
		</linearGradient>
		<path class="st13" d="M101.5,25.2c0,2.3-1.9,4.2-4.2,4.2c-2.3,0-4.2-1.9-4.2-4.2s1.9-4.2,4.2-4.2S101.5,22.9,101.5,25.2
			L101.5,25.2z"/>
		
			<linearGradient id="SVGID_15_" gradientUnits="userSpaceOnUse" x1="126.0098" y1="53.8696" x2="24.7798" y2="103.3596" gradientTransform="matrix(1 0 0 -1 0 98)">
			<stop  offset="3.000000e-02" style="stop-color:#EF3511"/>
			<stop  offset="0.26" style="stop-color:#F7D64B"/>
			<stop  offset="0.5" style="stop-color:#97C735"/>
			<stop  offset="0.74" style="stop-color:#33B3E8"/>
			<stop  offset="1" style="stop-color:#336699"/>
		</linearGradient>
		<path class="st14" d="M84.5,22.1c0,2-1.6,3.6-3.6,3.6c-2,0-3.6-1.6-3.6-3.6s1.6-3.6,3.6-3.6l0,0C82.9,18.5,84.5,20.1,84.5,22.1z"
			/>
		
			<linearGradient id="SVGID_16_" gradientUnits="userSpaceOnUse" x1="122.5033" y1="46.6767" x2="21.2633" y2="96.1767" gradientTransform="matrix(1 0 0 -1 0 98)">
			<stop  offset="3.000000e-02" style="stop-color:#EF3511"/>
			<stop  offset="0.26" style="stop-color:#F7D64B"/>
			<stop  offset="0.5" style="stop-color:#97C735"/>
			<stop  offset="0.74" style="stop-color:#33B3E8"/>
			<stop  offset="1" style="stop-color:#336699"/>
		</linearGradient>
		<path class="st15" d="M66.9,22.7c0,1.7-1.3,3-3,3s-3-1.3-3-3s1.3-3,3-3S66.9,21,66.9,22.7z"/>
		
			<linearGradient id="SVGID_17_" gradientUnits="userSpaceOnUse" x1="118.0698" y1="37.6197" x2="16.8298" y2="87.1197" gradientTransform="matrix(1 0 0 -1 0 98)">
			<stop  offset="3.000000e-02" style="stop-color:#EF3511"/>
			<stop  offset="0.26" style="stop-color:#F7D64B"/>
			<stop  offset="0.5" style="stop-color:#97C735"/>
			<stop  offset="0.74" style="stop-color:#33B3E8"/>
			<stop  offset="1" style="stop-color:#336699"/>
		</linearGradient>
		<circle class="st16" cx="49.4" cy="26.8" r="2.4"/>
		
			<linearGradient id="SVGID_18_" gradientUnits="userSpaceOnUse" x1="113.3823" y1="28.0147" x2="12.1323" y2="77.5147" gradientTransform="matrix(1 0 0 -1 0 98)">
			<stop  offset="3.000000e-02" style="stop-color:#EF3511"/>
			<stop  offset="0.26" style="stop-color:#F7D64B"/>
			<stop  offset="0.5" style="stop-color:#97C735"/>
			<stop  offset="0.74" style="stop-color:#33B3E8"/>
			<stop  offset="1" style="stop-color:#336699"/>
		</linearGradient>
		<path class="st17" d="M39.5,33c0,1-0.8,1.8-1.8,1.8S35.9,34,35.9,33c0-1,0.8-1.8,1.8-1.8C38.7,31.2,39.5,32,39.5,33
			C39.5,33,39.5,33,39.5,33z"/>
		<g class="st18">
			<path class="st19" d="M136,15.3c3.6-0.7,10.8-1.2,17.6-1.2c8.3,0,13.4,0.8,17.7,3.4c4.2,2.2,7.2,6.3,7.2,11.8
				c0,5.3-3.1,10.3-9.9,12.8v0.2c6.9,1.9,11.9,7,11.9,14.8c0,5.4-2.5,9.7-6.2,12.7c-4.4,3.5-11.7,5.4-23.6,5.4
				c-6.7,0-11.7-0.4-14.7-0.9V15.3z M149.4,38.3h4.5c7.1,0,11-2.9,11-7.4c0-4.5-3.5-6.9-9.6-6.9c-2.9,0-4.6,0.2-5.8,0.4V38.3z
				 M149.4,64.9c1.3,0.2,2.9,0.2,5.3,0.2c6.1,0,11.6-2.3,11.6-8.6c0-6.1-5.4-8.5-12.2-8.5h-4.6V64.9z"/>
			<path class="st19" d="M203.3,18.9c0,3.7-2.9,6.8-7.3,6.8c-4.3,0-7.1-3-7-6.8c-0.1-3.9,2.8-6.9,7.1-6.9S203.2,15,203.3,18.9z
				 M189.3,74.6V31h13.5v43.6H189.3z"/>
			<path class="st19" d="M255.4,31c-0.2,2.8-0.4,6.4-0.4,12.9v24.3c0,8.4-1.7,15.2-6.6,19.6c-4.8,4.1-11.3,5.3-17.7,5.3
				c-5.7,0-11.8-1.2-15.7-3.4l2.7-10.2c2.8,1.6,7.6,3.3,12.7,3.3c6.4,0,11.3-3.5,11.3-11.5v-2.9h-0.2c-2.6,3.7-6.8,5.7-11.8,5.7
				c-10.8,0-18.4-8.7-18.4-21.3c0-14,9.1-22.9,19.8-22.9c6,0,9.7,2.6,11.9,6.1h0.2l0.4-5.2H255.4z M241.5,48.7
				c0-0.9-0.1-1.8-0.3-2.5c-1-3.6-3.6-6-7.3-6c-4.9,0-8.9,4.5-8.9,12.4c0,6.5,3.2,11.6,8.9,11.6c3.5,0,6.2-2.3,7.1-5.5
				c0.4-1,0.4-2.4,0.4-3.6V48.7z"/>
		</g>
		<g class="st18">
			<path class="st20" d="M265.8,15.4c2.7-0.8,5.8-1.2,9.3-1.2c6.3,0,10.8,1.6,14.1,4.5c4.6,4,8.1,11.8,8.1,24.3
				c0,13.7-3.4,21.2-7.2,25.3c-3.9,4.5-9.6,6.5-16.6,6.5c-2.8,0-5.6-0.2-7.7-0.6V15.4z M272.6,69c1,0.2,2,0.2,2.6,0.2
				c7.6,0,14.9-5.4,14.9-25.8c0-15.1-4.6-23.4-14.3-23.4c-1.1,0-2.3,0.1-3.2,0.4V69z"/>
		</g>
		<g class="st18">
			<path class="st20" d="M321.9,74.6l-0.4-4.5h-0.3c-1.9,3.3-4.9,5.3-8.6,5.3c-5.8,0-10.2-4.9-10.2-12.3c0-10.8,8.6-15.6,18.4-15.7
				V46c0-5.8-1.4-9.8-6.9-9.8c-2.7,0-5.1,0.9-7.1,2.2l-1.5-4.8c1.8-1.3,5.8-2.9,10.1-2.9c8.6,0,12.4,5.7,12.4,15.4v18.6
				c0,3.3,0,7,0.4,9.8H321.9z M320.9,52.3c-3.6,0-11.9,0.6-11.9,10c0,5.6,2.9,7.7,5.3,7.7c3,0,5.6-2.2,6.4-6.5
				c0.2-0.8,0.2-1.7,0.2-2.4V52.3z"/>
		</g>
		<g class="st18">
			<path class="st20" d="M344.9,20v11.4h8.3v5.3h-8.3v25.6c0,5.6,2,7.1,4.5,7.1c1.1,0,2-0.1,2.8-0.3l0.3,5.3
				c-1.2,0.4-2.9,0.7-5.1,0.7c-2.7,0-5.1-0.7-6.8-2.6c-1.7-2-2.6-4.9-2.6-10.9V36.7h-5.3v-5.3h5.3V22L344.9,20z"/>
			<path class="st20" d="M376.3,74.6l-0.4-4.5h-0.3c-1.9,3.3-4.9,5.3-8.6,5.3c-5.8,0-10.2-4.9-10.2-12.3c0-10.8,8.6-15.6,18.4-15.7
				V46c0-5.8-1.4-9.8-6.9-9.8c-2.7,0-5.1,0.9-7.1,2.2l-1.5-4.8c1.8-1.3,5.8-2.9,10.1-2.9c8.6,0,12.4,5.7,12.4,15.4v18.6
				c0,3.3,0,7,0.4,9.8H376.3z M375.3,52.3c-3.6,0-11.9,0.6-11.9,10c0,5.6,2.9,7.7,5.3,7.7c3,0,5.6-2.2,6.4-6.5
				c0.2-0.8,0.2-1.7,0.2-2.4V52.3z"/>
		</g>
		<g class="st18">
			<path class="st21" d="M398.6,26v32.5c0,8.7,2.9,11.7,6.6,11.7c4.1,0,6.7-3.2,6.7-11.7V26h5.5v31.7c0,12.6-5.2,17.4-12.4,17.4
				c-7.3,0-12-4.8-12-16.8V26H398.6z"/>
			<path class="st21" d="M426,74.5V26h5.3l8.9,22.8c2,5.2,4.5,11.7,6.2,16.9h0.1c-0.4-7.6-0.6-13.9-0.6-22.3V26h5v48.5h-5.3
				l-9.2-23.3c-1.9-4.9-4-10.4-5.8-16.5h-0.1c0.4,6.5,0.6,12.7,0.6,23v16.8H426z"/>
		</g>
		<g class="st18">
			<path class="st21" d="M494.7,73.3c-2.1,0.9-5.5,1.7-8.6,1.7c-4.2,0-8.2-1.2-11.4-4.8c-3.5-3.7-5.9-10.4-5.8-19.3
				c0.1-18.9,9.7-25.3,18.3-25.3c3,0,5.4,0.6,6.9,1.4l-1.2,4.8c-1.3-0.6-3-1.2-5.6-1.2c-6,0-12.6,4.8-12.6,19.9
				c0,15,5.7,19.8,11.5,19.8c1.9,0,3-0.4,3.4-0.6V53.8h-6.3v-4.6h11.5V73.3z"/>
		</g>
		<g class="st18">
			<path class="st21" d="M502,24.7h5.5v49.8H502V24.7z"/>
			<path class="st21" d="M537.1,57.1c0,13.5-6.3,18-11.6,18c-6.3,0-11.3-5.7-11.3-17.9c0-12.7,5.7-18.1,11.7-18.1
				C532.1,39.1,537.1,44.9,537.1,57.1z M519.7,57.1c0,5.8,1,13.6,6,13.6c4.8,0,5.7-8.2,5.7-13.6c0-5.3-0.9-13.5-5.8-13.5
				C520.7,43.6,519.7,51.8,519.7,57.1z"/>
			<path class="st21" d="M542.9,74.5c0.1-2,0.3-6,0.3-8.4V24.7h5.5v19.1h0.1c1.8-3.5,4.4-4.7,7.3-4.7c5.4,0,9.5,6.3,9.5,17.6
				c0,12.6-5.2,18.4-10.6,18.4c-3.7,0-5.5-2.2-6.9-5.1H548l-0.4,4.5H542.9z M548.8,62.2c0,0.8,0,1.6,0.2,2.2
				c1.3,5.2,3.7,6.1,5.2,6.1c4.5,0,6-6,6-13.5c0-7-1.7-13.2-6.1-13.2c-2.6,0-4.8,3.2-5.2,6.2c-0.1,0.8-0.1,1.7-0.1,2.4V62.2z"/>
			<path class="st21" d="M585.8,74.5l-0.4-3.7h-0.2c-1.5,2.7-4,4.2-6.9,4.2c-4.7,0-8.3-4-8.3-9.9c0-8.7,7-12.6,14.8-12.7v-1.1
				c0-4.7-1.2-7.9-5.5-7.9c-2.2,0-4.1,0.7-5.8,1.8l-1.2-3.9c1.4-1.1,4.7-2.3,8.1-2.3c7,0,10,4.6,10,12.5v15c0,2.7,0,5.7,0.4,7.9
				H585.8z M585,56.5c-2.9,0-9.6,0.5-9.6,8.1c0,4.5,2.3,6.2,4.2,6.2c2.4,0,4.5-1.8,5.2-5.3c0.1-0.6,0.1-1.4,0.1-1.9V56.5z"/>
			<path class="st21" d="M598.2,24.7h5.5v49.8h-5.5V24.7z"/>
		</g>
		<g class="st18">
			<path class="st21" d="M627.7,74.5L618.3,26h5.8l4.1,23.4c1,6.1,1.8,11.5,2.4,17.5h0.3c0.6-6.1,1.7-11.4,2.9-17.6l4.5-23.3h4.8
				l4.5,22.8c1.1,5.8,2.2,11.3,2.8,18.1h0.2c0.8-7,1.7-12.2,2.6-17.8l4-23.1h5.4L653,74.5h-5.4l-4.7-23.6
				c-0.9-5.1-1.9-10.6-2.4-15.9h-0.1c-0.7,5.5-1.5,10.7-2.7,16.1l-4.8,23.4H627.7z"/>
		</g>
		<g class="st18">
			<path class="st21" d="M686.6,57.1c0,13.5-6.3,18-11.6,18c-6.3,0-11.3-5.7-11.3-17.9c0-12.7,5.7-18.1,11.7-18.1
				C681.5,39.1,686.6,44.9,686.6,57.1z M669.2,57.1c0,5.8,1,13.6,6,13.6c4.8,0,5.7-8.2,5.7-13.6c0-5.3-0.9-13.5-5.8-13.5
				C670.2,43.6,669.2,51.8,669.2,57.1z"/>
			<path class="st21" d="M692.7,48.7c0-3-0.2-6.4-0.3-9h5l0.3,5.5h0.1c1.2-3.3,4.1-6,7.3-6c0.4,0,0.8,0.1,1.2,0.1v5.7
				c-0.4-0.1-0.7-0.1-1.2-0.1c-3.5,0-6.1,3.2-6.7,7.3c-0.1,0.9-0.2,2-0.2,3.2v19.3h-5.5V48.7z"/>
		</g>
		<g class="st18">
			<path class="st21" d="M716.1,55.9h0.1c0.6-1.4,1.2-2.7,1.9-3.9l6.9-12.3h6l-9.2,14.7l10,20.2h-6.2L718,58.1l-1.9,3.2v13.2h-5.5
				V24.7h5.5V55.9z"/>
		</g>
		<g class="st18">
			<path class="st21" d="M741.8,30.7c0.1,2.2-1.3,3.6-3.4,3.6c-1.8,0-3.2-1.4-3.2-3.6s1.4-3.6,3.2-3.6
				C740.5,27.1,741.8,28.5,741.8,30.7z M735.8,74.5V39.7h5.5v34.9H735.8z"/>
			<path class="st21" d="M749.1,48.7c0-4.1-0.2-6.2-0.3-9h4.8l0.3,4.2h0.1c1.5-2.8,4.3-4.8,8-4.8c4.8,0,8.4,3.6,8.4,12v23.4h-5.5
				V52.1c0-4.1-0.8-8.3-4.8-8.3c-2.3,0-4.5,1.9-5.3,5.7c-0.1,0.9-0.2,1.9-0.2,3.1v22h-5.5V48.7z"/>
			<path class="st21" d="M799.5,39.7c-0.1,2.4-0.3,5.5-0.3,10.9v19.5c0,9.1-1.2,12.6-3.5,15.1c-2.1,2.4-5.4,3.7-9.3,3.7
				c-3,0-5.8-0.7-7.6-1.7l1.3-4.3c1.4,0.7,3.7,1.5,6.5,1.5c4.4,0,7.1-2.7,7.1-10.7v-3.5h-0.1c-1.2,2.7-3.7,4.2-6.7,4.2
				c-6.2,0-10.2-7-10.2-17.2c0-12.8,5.8-18.1,10.9-18.1c3.7,0,5.5,2.4,6.5,4.5h0.1l0.3-4H799.5z M793.8,51.7c0-0.9-0.1-1.8-0.3-2.5
				c-0.6-2.4-1.9-5.3-5-5.3c-4,0-6.2,5.4-6.2,13.1c0,8.9,2.8,13,6.2,13c1.7,0,3.8-0.8,5-5c0.3-1.1,0.4-2.2,0.4-3.2V51.7z"/>
		</g>
		<g class="st18">
			<path class="st21" d="M842.6,73.3c-2.1,0.9-5.5,1.7-8.6,1.7c-4.2,0-8.2-1.2-11.4-4.8c-3.5-3.7-5.9-10.4-5.8-19.3
				c0.1-18.9,9.7-25.3,18.3-25.3c3,0,5.4,0.6,6.9,1.4l-1.2,4.8c-1.3-0.6-3-1.2-5.6-1.2c-6,0-12.6,4.8-12.6,19.9
				c0,15,5.7,19.8,11.5,19.8c1.9,0,3-0.4,3.4-0.6V53.8h-6.3v-4.6h11.5V73.3z"/>
		</g>
		<g class="st18">
			<path class="st21" d="M849.8,48.7c0-3-0.2-6.4-0.3-9h5l0.3,5.5h0.1c1.2-3.3,4.1-6,7.3-6c0.4,0,0.8,0.1,1.2,0.1v5.7
				c-0.4-0.1-0.7-0.1-1.2-0.1c-3.5,0-6.1,3.2-6.7,7.3c-0.1,0.9-0.2,2-0.2,3.2v19.3h-5.5V48.7z"/>
		</g>
		<g class="st18">
			<path class="st21" d="M888.1,57.1c0,13.5-6.3,18-11.6,18c-6.3,0-11.3-5.7-11.3-17.9c0-12.7,5.7-18.1,11.7-18.1
				C883.1,39.1,888.1,44.9,888.1,57.1z M870.7,57.1c0,5.8,1,13.6,6,13.6c4.8,0,5.7-8.2,5.7-13.6c0-5.3-0.9-13.5-5.8-13.5
				C871.7,43.6,870.7,51.8,870.7,57.1z"/>
			<path class="st21" d="M915.2,65c0,3.9,0.2,6.9,0.3,9.5h-4.8l-0.4-3.7h-0.1c-1.1,1.7-3.7,4.2-7.5,4.2c-6.1,0-8.5-4.8-8.5-13.4v-22
				h5.5v21.2c0,5.5,0.9,9.5,4.7,9.5c3.2,0,4.7-3,5-4.6c0.2-0.9,0.3-2,0.3-3.2v-23h5.5V65z"/>
			<path class="st21" d="M922.9,50.6c0-5.3-0.2-8.4-0.3-10.9h5l0.3,4.5h0.1c1.9-3.7,4.6-5,7.3-5c6,0,10.1,6.5,10.1,17.9
				c0,12.9-5.3,18.1-10.8,18.1c-3.2,0-5.1-2.1-6-4h-0.1v17.3h-5.5V50.6z M928.4,61.7c0,1.1,0,2.1,0.2,2.9c1.1,5,3.6,5.9,5.1,5.9
				c4.6,0,6-6.3,6-13.4c0-7.2-1.7-13.2-6.1-13.2c-2.5,0-4.8,3.2-5.1,6.3c-0.1,0.9-0.1,1.7-0.1,2.7V61.7z"/>
		</g>
	</g>
</g>
</svg>
